<svg xmlns="http://www.w3.org/2000/svg" xmlns:xlink="http://www.w3.org/1999/xlink" width="500" zoomAndPan="magnify" viewBox="0 0 375 374.999991" height="500" preserveAspectRatio="xMidYMid meet" version="1.0"><defs><g/><clipPath id="dd8b50c679"><path d="M 114.210938 163.578125 L 168.1875 163.578125 L 168.1875 217.550781 L 114.210938 217.550781 Z M 114.210938 163.578125 " clip-rule="nonzero"/></clipPath><clipPath id="76249f1744"><path d="M 141.199219 163.578125 C 126.296875 163.578125 114.210938 175.660156 114.210938 190.566406 C 114.210938 205.46875 126.296875 217.550781 141.199219 217.550781 C 156.105469 217.550781 168.1875 205.46875 168.1875 190.566406 C 168.1875 175.660156 156.105469 163.578125 141.199219 163.578125 Z M 141.199219 163.578125 " clip-rule="nonzero"/></clipPath><clipPath id="24ee9d9a6c"><path d="M 94.144531 178.824219 L 188.421875 178.824219 L 188.421875 222.628906 L 94.144531 222.628906 Z M 94.144531 178.824219 " clip-rule="nonzero"/></clipPath><clipPath id="5cb48e3ad0"><path d="M 141.199219 178.824219 L 188.257812 222.628906 L 94.144531 222.628906 Z M 141.199219 178.824219 " clip-rule="nonzero"/></clipPath><clipPath id="cfc0b4cd69"><path d="M 134.652344 195.878906 L 141 195.878906 L 141 202 L 134.652344 202 Z M 134.652344 195.878906 " clip-rule="nonzero"/></clipPath><clipPath id="a22edccb15"><path d="M 142 195.878906 L 148.1875 195.878906 L 148.1875 202 L 142 202 Z M 142 195.878906 " clip-rule="nonzero"/></clipPath><clipPath id="ce4a47dff1"><path d="M 134.652344 203 L 141 203 L 141 209.417969 L 134.652344 209.417969 Z M 134.652344 203 " clip-rule="nonzero"/></clipPath><clipPath id="4dd20af688"><path d="M 142 203 L 148.1875 203 L 148.1875 209.417969 L 142 209.417969 Z M 142 203 " clip-rule="nonzero"/></clipPath></defs><rect x="-37.5" width="450" fill="#ffffff" y="-37.499999" height="449.999989" fill-opacity="1"/><rect x="-37.5" width="450" fill="#ffffff" y="-37.499999" height="449.999989" fill-opacity="1"/><g clip-path="url(#dd8b50c679)"><g clip-path="url(#76249f1744)"><path fill="#000000" d="M 114.210938 163.578125 L 168.1875 163.578125 L 168.1875 217.550781 L 114.210938 217.550781 Z M 114.210938 163.578125 " fill-opacity="1" fill-rule="nonzero"/></g></g><g clip-path="url(#24ee9d9a6c)"><g clip-path="url(#5cb48e3ad0)"><path fill="#ffffff" d="M 94.144531 178.824219 L 188.253906 178.824219 L 188.253906 222.628906 L 94.144531 222.628906 Z M 94.144531 178.824219 " fill-opacity="1" fill-rule="nonzero"/></g></g><g clip-path="url(#cfc0b4cd69)"><path fill="#000000" d="M 140.335938 195.878906 L 134.921875 195.878906 C 134.773438 195.878906 134.652344 196 134.652344 196.152344 L 134.652344 201.566406 C 134.652344 201.714844 134.773438 201.835938 134.921875 201.835938 L 140.335938 201.835938 C 140.484375 201.835938 140.605469 201.714844 140.605469 201.566406 L 140.605469 196.152344 C 140.605469 196 140.484375 195.878906 140.335938 195.878906 Z M 140.335938 195.878906 " fill-opacity="1" fill-rule="nonzero"/></g><g clip-path="url(#a22edccb15)"><path fill="#000000" d="M 147.917969 195.878906 L 142.5 195.878906 C 142.351562 195.878906 142.230469 196 142.230469 196.152344 L 142.230469 201.566406 C 142.230469 201.714844 142.351562 201.835938 142.5 201.835938 L 147.917969 201.835938 C 148.066406 201.835938 148.1875 201.714844 148.1875 201.566406 L 148.1875 196.152344 C 148.1875 196 148.066406 195.878906 147.917969 195.878906 Z M 147.917969 195.878906 " fill-opacity="1" fill-rule="nonzero"/></g><g clip-path="url(#ce4a47dff1)"><path fill="#000000" d="M 140.335938 203.460938 L 134.921875 203.460938 C 134.773438 203.460938 134.652344 203.582031 134.652344 203.730469 L 134.652344 209.144531 C 134.652344 209.296875 134.773438 209.417969 134.921875 209.417969 L 140.335938 209.417969 C 140.484375 209.417969 140.605469 209.296875 140.605469 209.144531 L 140.605469 203.730469 C 140.605469 203.582031 140.484375 203.460938 140.335938 203.460938 Z M 140.335938 203.460938 " fill-opacity="1" fill-rule="nonzero"/></g><g clip-path="url(#4dd20af688)"><path fill="#000000" d="M 147.917969 203.460938 L 142.5 203.460938 C 142.351562 203.460938 142.230469 203.582031 142.230469 203.730469 L 142.230469 209.144531 C 142.230469 209.296875 142.351562 209.417969 142.5 209.417969 L 147.917969 209.417969 C 148.066406 209.417969 148.1875 209.296875 148.1875 209.144531 L 148.1875 203.730469 C 148.1875 203.582031 148.066406 203.460938 147.917969 203.460938 Z M 147.917969 203.460938 " fill-opacity="1" fill-rule="nonzero"/></g><g fill="#8c52ff" fill-opacity="1"><g transform="translate(59.894172, 209.968808)"><g><path d="M 5.140625 0 L 5.140625 -73.609375 L 20.28125 -73.609375 L 20.28125 -39.28125 L 20.453125 -39.28125 C 24.390625 -43.21875 28.585938 -45.1875 33.046875 -45.1875 C 35.210938 -45.1875 37.363281 -44.898438 39.5 -44.328125 C 41.644531 -43.765625 43.703125 -42.882812 45.671875 -41.6875 C 47.640625 -40.488281 49.234375 -38.789062 50.453125 -36.59375 C 51.679688 -34.394531 52.296875 -31.84375 52.296875 -28.9375 L 52.296875 0 L 37.140625 0 L 37.140625 -24.828125 C 37.140625 -27.109375 36.410156 -29.101562 34.953125 -30.8125 C 33.503906 -32.519531 31.609375 -33.375 29.265625 -33.375 C 26.984375 -33.375 24.914062 -32.488281 23.0625 -30.71875 C 21.207031 -28.957031 20.28125 -26.992188 20.28125 -24.828125 L 20.28125 0 Z M 5.140625 0 "/></g></g></g><g fill="#8c52ff" fill-opacity="1"><g transform="translate(166.004612, 209.968808)"><g><path d="M 19.4375 -43.90625 L 19.4375 -23.03125 C 19.4375 -18.6875 20.085938 -15.601562 21.390625 -13.78125 C 22.703125 -11.957031 24.925781 -11.046875 28.0625 -11.046875 C 31.207031 -11.046875 33.4375 -11.957031 34.75 -13.78125 C 36.0625 -15.601562 36.71875 -18.6875 36.71875 -23.03125 L 36.71875 -43.90625 L 51.875 -43.90625 L 51.875 -19.34375 C 51.875 -12.039062 49.972656 -6.773438 46.171875 -3.546875 C 42.378906 -0.328125 36.34375 1.28125 28.0625 1.28125 C 19.789062 1.28125 13.757812 -0.328125 9.96875 -3.546875 C 6.175781 -6.773438 4.28125 -12.039062 4.28125 -19.34375 L 4.28125 -43.90625 Z M 19.4375 -43.90625 "/></g></g></g><g fill="#8c52ff" fill-opacity="1"><g transform="translate(217.013976, 209.968808)"><g><path d="M 24.21875 -45.1875 C 26.726562 -45.1875 29.207031 -44.898438 31.65625 -44.328125 C 34.113281 -43.765625 35.941406 -43.195312 37.140625 -42.625 L 38.9375 -41.765625 L 33.984375 -31.84375 C 30.554688 -33.664062 27.300781 -34.578125 24.21875 -34.578125 C 22.507812 -34.578125 21.296875 -34.390625 20.578125 -34.015625 C 19.867188 -33.648438 19.515625 -32.953125 19.515625 -31.921875 C 19.515625 -31.691406 19.539062 -31.460938 19.59375 -31.234375 C 19.65625 -31.015625 19.769531 -30.800781 19.9375 -30.59375 C 20.113281 -30.394531 20.269531 -30.222656 20.40625 -30.078125 C 20.550781 -29.941406 20.796875 -29.785156 21.140625 -29.609375 C 21.484375 -29.441406 21.753906 -29.316406 21.953125 -29.234375 C 22.148438 -29.148438 22.476562 -29.019531 22.9375 -28.84375 C 23.394531 -28.675781 23.738281 -28.546875 23.96875 -28.453125 C 24.195312 -28.367188 24.582031 -28.238281 25.125 -28.0625 C 25.664062 -27.894531 26.078125 -27.785156 26.359375 -27.734375 C 28.128906 -27.222656 29.671875 -26.648438 30.984375 -26.015625 C 32.296875 -25.390625 33.675781 -24.535156 35.125 -23.453125 C 36.582031 -22.367188 37.710938 -21 38.515625 -19.34375 C 39.316406 -17.6875 39.71875 -15.800781 39.71875 -13.6875 C 39.71875 -3.707031 32.785156 1.28125 18.921875 1.28125 C 15.773438 1.28125 12.789062 0.796875 9.96875 -0.171875 C 7.144531 -1.140625 5.109375 -2.109375 3.859375 -3.078125 L 1.96875 -4.625 L 8.125 -14.984375 C 8.582031 -14.578125 9.179688 -14.101562 9.921875 -13.5625 C 10.671875 -13.019531 12.015625 -12.273438 13.953125 -11.328125 C 15.890625 -10.390625 17.570312 -9.921875 19 -9.921875 C 22.132812 -9.921875 23.703125 -10.976562 23.703125 -13.09375 C 23.703125 -14.0625 23.300781 -14.816406 22.5 -15.359375 C 21.707031 -15.898438 20.351562 -16.515625 18.4375 -17.203125 C 16.53125 -17.890625 15.035156 -18.519531 13.953125 -19.09375 C 11.210938 -20.519531 9.039062 -22.128906 7.4375 -23.921875 C 5.84375 -25.722656 5.046875 -28.109375 5.046875 -31.078125 C 5.046875 -35.523438 6.769531 -38.988281 10.21875 -41.46875 C 13.675781 -43.945312 18.34375 -45.1875 24.21875 -45.1875 Z M 24.21875 -45.1875 "/></g></g></g><g fill="#8c52ff" fill-opacity="1"><g transform="translate(253.987061, 209.968808)"><g><path d="M 49.5625 -19.859375 L 17.71875 -19.859375 C 17.71875 -16.773438 18.710938 -14.488281 20.703125 -13 C 22.703125 -11.519531 24.875 -10.78125 27.21875 -10.78125 C 29.675781 -10.78125 31.613281 -11.109375 33.03125 -11.765625 C 34.457031 -12.421875 36.085938 -13.71875 37.921875 -15.65625 L 48.875 -10.1875 C 44.3125 -2.539062 36.722656 1.28125 26.109375 1.28125 C 19.484375 1.28125 13.800781 -0.984375 9.0625 -5.515625 C 4.332031 -10.054688 1.96875 -15.519531 1.96875 -21.90625 C 1.96875 -28.300781 4.332031 -33.78125 9.0625 -38.34375 C 13.800781 -42.90625 19.484375 -45.1875 26.109375 -45.1875 C 33.066406 -45.1875 38.726562 -43.175781 43.09375 -39.15625 C 47.457031 -35.132812 49.640625 -29.382812 49.640625 -21.90625 C 49.640625 -20.882812 49.613281 -20.203125 49.5625 -19.859375 Z M 18.140625 -28.25 L 34.84375 -28.25 C 34.5 -30.53125 33.597656 -32.28125 32.140625 -33.5 C 30.679688 -34.726562 28.8125 -35.34375 26.53125 -35.34375 C 24.019531 -35.34375 22.019531 -34.6875 20.53125 -33.375 C 19.050781 -32.0625 18.253906 -30.351562 18.140625 -28.25 Z M 18.140625 -28.25 "/></g></g></g></svg>